<svg xmlns="http://www.w3.org/2000/svg" viewBox="0 0 600 660" role="img" aria-labelledby="title desc">
  <title id="title">T Level Industry Academy emblem</title>
  <desc id="desc">Silver shield emblem reading Cura et Compassio and Industry Academy, with a medical symbol, rising arrows, a gear and the letter T.</desc>
  <defs>
    <linearGradient id="silver" x1="0" y1="0" x2="1" y2="1">
      <stop offset="0" stop-color="#fff"/>
      <stop offset=".22" stop-color="#d7dbe0"/>
      <stop offset=".48" stop-color="#fafafa"/>
      <stop offset=".72" stop-color="#b5bac1"/>
      <stop offset="1" stop-color="#f4f5f6"/>
    </linearGradient>
    <linearGradient id="darkSilver" x1="0" y1="0" x2="1" y2="1">
      <stop offset="0" stop-color="#6b7280"/>
      <stop offset=".5" stop-color="#222831"/>
      <stop offset="1" stop-color="#59616d"/>
    </linearGradient>
    <filter id="shadow" x="-20%" y="-20%" width="140%" height="150%">
      <feDropShadow dx="0" dy="12" stdDeviation="10" flood-color="#0f172a" flood-opacity=".28"/>
    </filter>
    <path id="topArc" d="M120 245 A205 190 0 0 1 480 245"/>
    <path id="bottomArc" d="M105 430 A220 205 0 0 0 495 430"/>
  </defs>
  <path d="M300 20 520 105 555 315c20 155-77 269-255 330C122 584 25 470 45 315l35-210Z" fill="url(#silver)" stroke="#f8fafc" stroke-width="18" filter="url(#shadow)"/>
  <path d="M300 42 499 118 531 318c16 132-66 231-231 288C135 549 53 450 69 318l32-200Z" fill="none" stroke="#252a32" stroke-width="8"/>
  <path d="M300 65 478 133 507 321c13 111-55 197-207 250C148 518 80 432 93 321l29-188Z" fill="none" stroke="#737b86" stroke-width="3"/>
  <text font-family="Arial, Helvetica, sans-serif" font-size="34" font-weight="700" letter-spacing="5" fill="#20242b">
    <textPath href="#topArc" startOffset="50%" text-anchor="middle">CURA ET COMPASSIO</textPath>
  </text>
  <text font-family="Arial, Helvetica, sans-serif" font-size="31" font-weight="700" letter-spacing="4" fill="#20242b">
    <textPath href="#bottomArc" startOffset="50%" text-anchor="middle">INDUSTRY ACADEMY</textPath>
  </text>
  <g fill="none" stroke="#252a32" stroke-width="8" stroke-linecap="round" stroke-linejoin="round">
    <path d="M176 331l72-75 26 27"/>
    <path d="M184 349l67-68 32 33"/>
    <path d="M382 298l65-76m0 0-8 42m8-42-40 13"/>
    <path d="M430 313l54-64m0 0-7 37m7-37-36 12"/>
  </g>
  <g transform="translate(300 205)" fill="none" stroke="#252a32" stroke-width="7" stroke-linecap="round" stroke-linejoin="round">
    <circle cy="-37" r="13" fill="#eef0f2"/>
    <path d="M0-24v112M-56-31c18 0 33 8 56 23 23-15 38-23 56-23-11 25-34 34-56 25-22 9-45 0-56-25Z"/>
    <path d="M-20 10c0 16 40 16 40 32S-17 58-17 73 11 91 11 102"/>
    <path d="M20 10c0 16-40 16-40 32S17 58 17 73-11 91-11 102"/>
  </g>
  <g transform="translate(300 390)">
    <path d="M0-120 23-111 44-124 60-104 87-105 93-79 118-68 108-43 126-23 108 0 118 25 93 37 87 64 60 63 44 84 23 70 0 82-23 70-44 84-60 63-87 64-93 37-118 25-108 0-126-23-108-43-118-68-93-79-87-105-60-104-44-124-23-111Z" fill="url(#darkSilver)" stroke="#eef0f2" stroke-width="9"/>
    <circle cy="-22" r="82" fill="#353b45" stroke="url(#silver)" stroke-width="12"/>
    <circle cy="-22" r="65" fill="none" stroke="#111827" stroke-width="3"/>
    <text x="0" y="43" text-anchor="middle" font-family="Georgia, 'Times New Roman', serif" font-size="145" font-weight="700" fill="url(#silver)" stroke="#111827" stroke-width="3">T</text>
  </g>
</svg>