# Blender v2.71 (sub 0) OBJ File: 'Base.blend'
# www.blender.org
mtllib basemesh_arshlevon_medium.mtl
o lowman_shoes
v -0.263732 5.440303 -0.386039
v -0.581284 5.401971 -0.326867
v -0.705335 5.775001 -0.418443
v -0.305457 5.767006 -0.559920
v -0.307544 5.491544 0.658470
v 0.000000 5.488350 0.687223
v -0.000000 5.804308 0.609874
v -0.364626 5.814099 0.711192
v -0.257539 6.769852 -0.421385
v -0.000000 6.645293 -0.325708
v -0.000000 6.436433 -0.351557
v -0.309315 6.536973 -0.527441
v -0.326947 6.158926 -0.587936
v -0.680452 6.154603 -0.553938
v -0.688242 6.596213 -0.465504
v -0.000000 5.144921 -0.193141
v -0.218359 5.132294 -0.293432
v 0.000000 5.463403 -0.308529
v -0.341956 6.162344 0.642812
v -0.000000 6.073214 0.553076
v 0.000003 6.370082 0.499454
v -0.264379 6.457815 0.483441
v -0.509408 4.874958 0.341626
v -0.279245 4.749516 0.570872
v -0.277103 5.122902 0.635894
v -0.520289 5.189540 0.417167
v -0.492720 4.901437 -0.207041
v -0.648026 4.933839 0.064553
v -0.589661 5.203792 0.072652
v -0.513127 5.147171 -0.241212
v -0.689275 5.450236 0.078082
v -0.784847 5.753935 0.017629
v -0.199202 8.043160 0.286097
v -0.333121 7.883800 0.280063
v -0.295435 7.788564 0.464136
v -0.182871 7.931277 0.516386
v -0.629081 5.492636 0.464440
v -1.217227 6.112459 0.078018
v -1.091566 6.083236 0.167533
v -0.871118 6.155245 0.259780
v -1.010545 6.453507 0.220483
v -1.310787 6.226540 -0.116452
v -1.108522 6.571827 -0.139573
v -1.226413 6.140855 -0.307731
v -1.057087 6.391098 -0.461702
v -1.053720 6.045579 -0.315629
v -0.919602 6.104033 -0.435458
v -0.972225 5.927846 -0.209036
v -0.842355 6.018163 -0.212270
v -0.994598 5.963084 -0.010554
v -0.802137 6.018830 -0.024253
v -1.001859 5.973513 0.122938
v -0.807593 6.075556 0.167510
v -1.622598 5.722738 0.234874
v -1.381303 5.899495 0.309200
v -1.522544 6.071064 0.160909
v -1.712210 5.858469 0.124489
v -1.706767 5.868756 -0.077308
v -1.519265 6.099678 -0.113066
v -1.709955 5.802077 -0.261178
v -1.496790 6.025042 -0.361142
v -1.328609 5.806594 -0.419024
v -1.560205 5.681853 -0.324791
v -1.255331 5.771907 -0.182791
v -1.471757 5.573943 -0.178125
v -1.203763 5.742228 -0.007040
v -1.502138 5.593335 -0.007563
v -1.530441 5.615582 0.137191
v -1.233904 5.756717 0.186280
v -2.127077 5.392303 0.247235
v -1.953127 5.497648 0.233099
v -2.037964 5.623487 0.169691
v -2.187885 5.502136 0.214952
v -2.286552 5.598821 0.046135
v -2.116443 5.753526 -0.021447
v -2.233000 5.495269 -0.166461
v -1.972818 5.677250 -0.273422
v -1.867914 5.491183 -0.360083
v -2.124440 5.328891 -0.251440
v -1.803140 5.302122 -0.195108
v -2.026589 5.172247 -0.136844
v -1.821261 5.271900 0.035450
v -2.031439 5.210897 0.060488
v -1.857331 5.344816 0.202582
v -2.044595 5.253438 0.214994
v -2.312439 5.258029 0.270254
v -2.384321 5.354278 0.261706
v -2.444293 5.400079 0.140122
v -2.425964 5.326185 0.004444
v -2.374594 5.205984 -0.060796
v -2.304655 5.114157 -0.002773
v -2.293441 5.137243 0.115276
v -2.296944 5.180270 0.201182
v -0.527914 6.819930 -0.291231
v -0.758853 6.651786 -0.122582
v -0.596980 6.779380 -0.025905
v -0.607930 6.535514 0.258910
v -0.419465 6.662859 0.173655
v -0.194917 6.609562 0.331511
v -0.322047 7.724669 -0.094346
v -0.306840 7.864210 -0.052628
v -0.195528 7.956664 -0.121083
v -0.210936 7.784543 -0.238273
v -0.000000 5.792641 -0.470219
v -0.000000 6.143729 -0.464563
v -0.654162 6.199805 0.442992
v -0.700331 5.839675 0.378492
v 0.000000 5.114580 0.515172
v -0.000000 7.976543 0.536958
v -0.000000 8.081619 0.289559
v -0.000000 6.539453 0.350918
v -0.000000 7.989258 -0.146474
v -0.000000 7.809556 -0.280660
v -2.808701 5.022866 0.335479
v -2.784683 4.990621 0.460314
v -2.672460 5.105608 0.412101
v -2.721320 5.145463 0.298850
v -2.722944 5.101713 0.182180
v -2.796535 5.001236 0.217234
v -2.679121 5.014048 0.124568
v -2.753310 4.943840 0.138147
v -2.626041 4.953112 0.134663
v -2.695155 4.876256 0.126504
v -2.651052 4.815814 0.198785
v -2.580183 4.923335 0.197995
v -2.538670 4.771647 0.483549
v -2.542862 4.908434 0.329763
v -2.594755 4.992167 0.469571
v -2.609032 4.824683 0.586740
v -2.897844 4.890423 0.505399
v -2.922977 4.907547 0.368156
v -3.030016 4.777215 0.404848
v -3.008733 4.780495 0.557481
v -2.910151 4.891242 0.233667
v -2.863175 4.843956 0.138624
v -2.957339 4.743195 0.159671
v -3.005910 4.751883 0.257055
v -2.794544 4.765827 0.130719
v -2.894227 4.679873 0.163192
v -2.768883 4.724059 0.225163
v -2.926319 4.664245 0.266699
v -2.770271 4.733978 0.348472
v -2.955143 4.698965 0.398110
v -3.094433 4.368186 0.503396
v -3.068738 4.365368 0.571502
v -3.139913 4.367787 0.604532
v -3.156222 4.374758 0.533009
v -2.737668 4.911358 0.558567
v -2.712748 4.765270 0.585177
v -2.646801 4.492423 0.563856
v -2.584730 4.497450 0.621311
v -2.650281 4.528120 0.664944
v -2.698444 4.520880 0.610460
v -2.628328 4.762002 0.312576
v -2.647605 4.705245 0.457587
v -3.095170 4.384355 0.357300
v -3.036465 4.403642 0.348213
v -3.036265 4.407987 0.412235
v -3.102064 4.381169 0.430017
v -2.829453 4.841419 0.606072
v -2.924670 4.771609 0.653235
v -3.124377 4.418756 0.678194
v -3.087837 4.414879 0.734182
v -3.142418 4.442501 0.771894
v -3.176865 4.445172 0.708742
v -2.954901 4.489561 0.272051
v -3.007163 4.472147 0.280524
v -2.999546 4.465674 0.225016
v -2.944245 4.476378 0.217185
v -3.114180 4.647695 0.474962
v -3.091527 4.647647 0.586359
v -3.047376 4.606534 0.473250
v -3.028301 4.595898 0.546700
v -2.934083 4.681448 0.533598
v -3.022983 4.611387 0.387057
v -3.029657 4.607768 0.319302
v -3.097632 4.638471 0.409306
v -3.097688 4.628308 0.304971
v -3.080585 4.668281 0.631839
v -3.029745 4.665564 0.724693
v -3.023757 4.617694 0.618409
v -2.987339 4.610833 0.672715
v -2.870312 4.690426 0.626258
v -2.961184 4.614998 0.189214
v -3.023444 4.643623 0.170803
v -2.970631 4.618839 0.247695
v -3.026032 4.648407 0.252766
v -3.135648 4.486682 0.607403
v -3.160950 4.490625 0.514044
v -3.088649 4.470374 0.497923
v -3.063836 4.462089 0.568460
v -3.053474 4.496520 0.400516
v -3.059822 4.498782 0.338766
v -3.125110 4.488394 0.425409
v -3.123391 4.485796 0.336815
v -3.153619 4.543670 0.679859
v -3.104915 4.536990 0.761023
v -3.091254 4.508569 0.653775
v -3.056244 4.504432 0.711775
v -2.962013 4.541896 0.200716
v -3.026950 4.542060 0.196600
v -2.971776 4.548166 0.259734
v -3.030181 4.551971 0.268396
v -2.485778 5.121447 0.347888
v -2.554619 5.213748 0.342656
v -2.610685 5.248377 0.238260
v -2.612544 5.188604 0.120514
v -2.576418 5.086619 0.058069
v -2.516871 5.012800 0.086599
v -2.481448 5.017467 0.168145
v -2.470665 5.059509 0.260506
v -2.641859 4.580999 0.511714
v -2.710010 4.624078 0.587302
v -2.565010 4.602983 0.574148
v -2.641179 4.639896 0.640942
v -2.764475 4.740643 0.601485
v -2.763794 4.717437 0.479011
v -1.793435 5.599044 0.123112
v -1.836284 5.686994 0.066230
v -1.901823 5.787455 -0.056590
v -1.819068 5.708723 -0.229166
v -1.706790 5.594704 -0.398740
v -1.664913 5.463318 -0.177652
v -1.679320 5.408907 0.002819
v -1.731670 5.495792 0.108292
v -0.278386 4.577460 -0.394363
v -0.000000 4.506159 -0.286361
v -0.000000 4.258652 -0.440766
v -0.333616 4.212417 -0.617560
v -0.326594 4.450111 0.543381
v -0.572912 4.613097 0.356816
v -0.602109 4.307886 0.356522
v -0.317233 4.063525 0.488493
v -0.689754 4.681018 0.042343
v -0.730002 4.409743 0.032222
v -0.549987 4.637599 -0.253687
v -0.644080 4.345892 -0.319661
v -0.000000 4.423869 0.564410
v -0.000000 4.035769 0.569306
v -0.374886 3.805010 0.523980
v -0.123593 3.617939 0.354210
v -0.080290 3.745909 0.359713
v -0.000000 4.062096 -0.330658
v -0.000000 3.858465 -0.056474
v -0.041096 3.797034 -0.061241
v -0.136583 3.956912 -0.396094
v -0.000000 3.720429 0.402175
v -0.662686 3.961699 0.390835
v -0.816278 4.013794 0.046115
v -0.762583 3.954090 -0.325258
v -0.482977 3.833152 -0.488302
v -0.196252 3.666457 -0.392585
v -0.068201 3.596501 -0.046525
v -0.181520 7.035036 0.458047
v -0.158616 7.012587 0.316836
v -0.082272 6.964934 0.361612
v -0.100329 6.947516 0.503157
v -0.000000 6.937847 0.386201
v -0.000000 6.909494 0.526938
v -0.000000 7.585275 -0.312587
v -0.000000 7.407614 -0.247328
v -0.164125 7.405962 -0.214839
v -0.205211 7.569254 -0.273146
v -0.000000 7.156371 -0.203780
v -0.000000 7.002840 -0.246237
v -0.143957 7.020506 -0.239198
v -0.128933 7.170147 -0.184366
v -0.192200 6.894693 -0.310156
v -0.000000 6.856822 -0.304406
v -0.261128 7.416998 -0.105625
v -0.307300 7.549820 -0.125526
v -0.262939 7.019281 -0.121693
v -0.218140 7.184181 -0.077828
v -0.379772 6.895580 -0.179500
v -0.314109 7.538456 0.012773
v -0.333091 7.677378 0.086086
v -0.279585 6.994328 0.092857
v -0.260329 7.196208 0.081305
v -0.409342 6.835366 0.024976
v -0.302297 6.790455 0.190450
v -0.122948 6.765387 0.234249
v -0.000000 6.743481 0.315399
v -0.182717 6.931536 0.230008
v -0.103870 6.901796 0.275193
v -0.000000 6.874000 0.316093
v -0.220154 7.314943 -0.074075
v -0.253106 7.335703 0.033010
v -0.284907 7.435967 0.004909
v -0.000000 8.078397 0.054402
v -0.194912 8.040363 0.064671
v -0.328198 7.885119 0.088015
v -0.346072 7.692835 0.254135
v -0.364235 7.495485 0.119596
v -0.328117 7.479291 0.171670
v -0.335858 7.518477 0.188507
v -0.360365 7.531364 0.144860
v -0.349230 7.376415 0.136792
v -0.318368 7.376772 0.178135
v -0.322367 7.429155 0.168520
v -0.358864 7.437415 0.116033
v -0.285424 7.180877 0.231253
v -0.246191 7.079223 0.269436
v -0.313364 7.477150 0.339151
v -0.321529 7.487736 0.434503
v -0.328394 7.607862 0.405167
v -0.319830 7.541947 0.306013
v -0.233856 7.128656 0.422699
v -0.274144 7.239467 0.387417
v -0.291064 7.354501 0.333319
v -0.277574 7.336296 0.431818
v -0.305272 7.408806 0.445635
v -0.288945 7.417652 0.348627
v -0.366160 7.558743 0.137973
v -0.327635 7.579452 0.137347
v -0.327986 7.518291 0.074534
v -0.376452 7.513769 0.075621
v -0.349805 7.361927 0.101003
v -0.369976 7.437196 0.066925
v -0.314919 7.440639 0.064234
v -0.290500 7.357851 0.097591
v -0.317800 7.292752 0.201121
v -0.341879 7.299700 0.146856
v -0.292952 7.276255 0.137688
v -0.295564 7.254359 0.211411
v -0.303060 7.320905 0.243463
v -0.303262 7.290965 0.288613
v -0.296854 7.367034 0.270192
v -0.291829 7.418108 0.280220
v -0.298357 7.466824 0.276892
v -0.342943 7.548703 0.208492
v -0.327409 7.587003 0.227646
v -0.327310 7.331818 0.194263
v -0.311312 7.339669 0.222391
v -0.303915 7.373165 0.223786
v -0.309004 7.464464 0.225435
v -0.302464 7.419913 0.223759
v -0.315324 7.511685 0.257142
v -0.000000 7.285759 -0.195315
v -0.133764 7.294614 -0.167326
v -0.346431 7.332290 0.161163
v -0.318793 7.496604 0.226226
v 0.000000 4.823897 -0.237386
v -0.227725 4.855610 -0.270097
v 0.000000 4.743330 0.528415
v -0.931827 2.060002 0.083913
v -0.722057 2.000920 0.153258
v -0.658971 2.339778 0.285605
v -0.848761 2.387776 0.155403
v -0.979299 2.408901 -0.020041
v -1.061339 2.168627 -0.106725
v -0.901081 2.398962 -0.261976
v -0.982052 2.213004 -0.359783
v -0.727659 2.366175 -0.380991
v -0.775782 2.224669 -0.497816
v -0.535852 1.982169 0.008907
v -0.540982 2.326115 0.097496
v -0.401851 2.028875 -0.272085
v -0.496462 2.172517 -0.468245
v -0.535205 2.330658 -0.371805
v -0.436736 2.291049 -0.188334
v -1.349776 0.241639 -0.364170
v -1.189638 0.534661 -0.404872
v -1.103481 0.503948 -0.549207
v -1.208598 0.229179 -0.560874
v -1.085257 0.263230 -0.770610
v -1.008132 0.526444 -0.670353
v -0.783669 0.257578 -0.729471
v -0.841939 0.519668 -0.628043
v -0.819041 0.495181 -0.439582
v -0.810695 0.241765 -0.462365
v -0.879157 0.331537 -0.173820
v -0.856169 0.564782 -0.232677
v -0.961788 0.856946 -0.162911
v -0.900413 1.159599 -0.146966
v -1.049876 1.172639 -0.210815
v -1.110987 0.870055 -0.229825
v -1.125996 1.174097 -0.401446
v -1.125716 0.842372 -0.417934
v -1.083560 1.183594 -0.617501
v -1.078819 0.816441 -0.601271
v -0.887109 1.209815 -0.691637
v -0.957028 0.830382 -0.652929
v -0.743608 1.139989 -0.189816
v -0.824862 0.827938 -0.221912
v -0.810518 0.821064 -0.587617
v -0.681171 1.185400 -0.614644
v -0.633057 1.125787 -0.401628
v -0.761381 0.798036 -0.422871
v -1.043690 0.465253 -0.097947
v -0.996424 0.617039 -0.184085
v -1.162316 0.608443 -0.243385
v -1.251274 0.422793 -0.170558
v -0.629631 2.646274 0.253586
v -0.826819 2.676942 0.216560
v -0.957537 2.655407 0.026511
v -0.889369 2.617789 -0.224622
v -0.711434 2.575990 -0.323824
v -0.473139 2.600757 0.153334
v -0.506601 2.556049 -0.292426
v -0.379627 2.560685 -0.119864
v -0.987082 1.771032 0.001477
v -0.787775 1.725245 0.086824
v -1.160038 1.816325 -0.231883
v -1.075044 1.843466 -0.509460
v -0.828201 1.872940 -0.698349
v -0.575152 1.695989 -0.061783
v -0.466568 1.809848 -0.641856
v -0.385993 1.703106 -0.345117
v -1.538693 0.122503 0.041059
v -1.493910 0.176991 -0.177128
v -1.432359 -0.098209 -0.194776
v -1.549382 -0.052098 0.030547
v -0.982353 -0.077590 0.013613
v -0.926193 0.227860 0.095632
v -1.031019 0.167750 0.300479
v -1.013690 -0.048106 0.282423
v -1.111614 0.332877 0.061437
v -1.209129 0.209050 0.253303
v -0.830259 0.015722 -0.729288
v -1.077350 0.034327 -0.792343
v -1.218136 -0.049501 -0.617823
v -1.318724 -0.053257 -0.394643
v -0.994881 0.041435 -0.251425
v -0.882392 -0.026647 -0.498209
v -1.017454 1.474842 -0.115019
v -0.855486 1.443846 -0.030841
v -1.152316 1.486448 -0.334554
v -1.076736 1.504721 -0.578496
v -0.855202 1.528088 -0.712303
v -0.670954 1.415896 -0.144982
v -0.501420 1.405508 -0.388547
v -0.588676 1.477582 -0.615634
v -0.554981 3.000924 0.453602
v -0.848425 3.049148 0.374288
v -0.479938 3.395051 0.538487
v -0.780739 3.489133 0.440408
v -1.016618 3.050221 0.068487
v -0.969362 3.520433 0.070597
v -0.943828 3.004375 -0.289627
v -0.909567 3.475436 -0.332251
v -0.681936 2.954957 -0.453392
v -0.615651 3.394168 -0.520187
v -0.308289 2.926786 0.299474
v -0.173363 3.297752 0.381024
v -0.361276 2.910264 -0.373065
v -0.198088 2.903636 -0.079154
v -0.266205 3.316974 -0.398306
v -0.086077 3.285471 -0.047106
v -1.305241 0.296913 -0.028273
v -1.372007 0.187884 0.167495
v -1.333680 -0.042078 0.026198
v -1.380872 -0.030555 0.161545
v -1.184331 -0.049738 0.088650
v -1.206953 -0.038848 0.227934
v -0.269124 7.403873 0.575438
v -0.257006 7.485753 0.559332
v -0.201623 7.138483 0.561768
v -0.221874 7.227774 0.555379
v -0.154055 7.386558 0.688988
v -0.000000 7.377218 0.722028
v -0.000000 7.455966 0.696044
v -0.148243 7.468043 0.656155
v -0.251491 7.317872 0.569417
v -0.134173 7.193520 0.678243
v -0.000000 7.175034 0.714520
v -0.000000 7.278114 0.749430
v -0.148726 7.289874 0.701613
v -0.246532 7.586374 0.562029
v -0.240068 7.706494 0.566958
v -0.123324 7.108221 0.652263
v -0.000000 7.089937 0.678873
v -0.152135 7.768471 0.647179
v -0.150254 7.577878 0.684554
v -0.000000 7.799067 0.680822
v -0.000000 7.574572 0.727415
v -0.175762 7.059955 0.555527
v -0.113688 6.998895 0.615352
v -0.000000 6.965855 0.659580
v -1.543402 -0.009209 0.254770
v -1.539356 0.101057 0.251309
v -1.161441 0.135950 0.449291
v -1.157519 -0.001277 0.446779
v -1.306726 0.183309 0.460178
v -1.453621 0.165482 0.379212
v -1.303667 -0.031482 0.451308
v -1.440749 -0.029774 0.383208
v 0.263732 5.440303 -0.386039
v 0.305456 5.767006 -0.559920
v 0.705335 5.775001 -0.418443
v 0.581284 5.401971 -0.326867
v 0.307544 5.491544 0.658470
v 0.364626 5.814099 0.711192
v 0.257539 6.769852 -0.421386
v 0.309315 6.536973 -0.527441
v 0.688242 6.596213 -0.465504
v 0.680452 6.154603 -0.553938
v 0.326946 6.158926 -0.587936
v 0.218359 5.132295 -0.293432
v 0.341956 6.162343 0.642810
v 0.264400 6.457788 0.483490
v 0.509408 4.874958 0.341626
v 0.520289 5.189540 0.417167
v 0.277103 5.122902 0.635894
v 0.279245 4.749516 0.570872
v 0.492720 4.901437 -0.207041
v 0.513127 5.147172 -0.241212
v 0.589661 5.203792 0.072652
v 0.648026 4.933839 0.064553
v 0.689275 5.450236 0.078082
v 0.784846 5.753935 0.017629
v 0.199202 8.043160 0.286097
v 0.182871 7.931276 0.516386
v 0.295434 7.788564 0.464135
v 0.333121 7.883800 0.280063
v 0.629081 5.492636 0.464440
v 1.217227 6.112459 0.078018
v 1.010544 6.453513 0.220487
v 0.871117 6.155245 0.259779
v 1.091566 6.083236 0.167533
v 1.310787 6.226540 -0.116452
v 1.108522 6.571832 -0.139571
v 1.226413 6.140855 -0.307731
v 1.057087 6.391099 -0.461702
v 1.053720 6.045579 -0.315629
v 0.919602 6.104033 -0.435458
v 0.972225 5.927846 -0.209036
v 0.842355 6.018162 -0.212270
v 0.994598 5.963084 -0.010554
v 0.802137 6.018831 -0.024253
v 1.001859 5.973513 0.122938
v 0.807593 6.075556 0.167510
v 1.622598 5.722738 0.234874
v 1.712210 5.858469 0.124489
v 1.522544 6.071064 0.160909
v 1.381303 5.899494 0.309200
v 1.706767 5.868756 -0.077308
v 1.519265 6.099678 -0.113066
v 1.709955 5.802077 -0.261178
v 1.496790 6.025041 -0.361142
v 1.560205 5.681853 -0.324791
v 1.328609 5.806594 -0.419024
v 1.471757 5.573942 -0.178126
v 1.255331 5.771907 -0.182792
v 1.502138 5.593335 -0.007563
v 1.203763 5.742228 -0.007040
v 1.530441 5.615582 0.137191
v 1.233904 5.756717 0.186280
v 2.127077 5.392304 0.247235
v 2.187885 5.502137 0.214953
v 2.037964 5.623488 0.169692
v 1.953126 5.497648 0.233099
v 2.286551 5.598821 0.046135
v 2.116442 5.753523 -0.021447
v 2.233000 5.495269 -0.166461
v 1.972818 5.677250 -0.273422
v 2.124440 5.328891 -0.251440
v 1.867914 5.491183 -0.360082
v 2.026589 5.172249 -0.136843
v 1.803140 5.302122 -0.195108
v 2.031439 5.210897 0.060488
v 1.821261 5.271901 0.035450
v 2.044595 5.253438 0.214994
v 1.857331 5.344814 0.202582
v 2.312439 5.258029 0.270254
v 2.384322 5.354278 0.261706
v 2.444294 5.400080 0.140122
v 2.425964 5.326185 0.004444
v 2.374594 5.205984 -0.060796
v 2.304655 5.114157 -0.002773
v 2.293441 5.137244 0.115276
v 2.296944 5.180271 0.201182
v 0.527913 6.819929 -0.291231
v 0.596984 6.779382 -0.025903
v 0.758856 6.651792 -0.122580
v 0.607892 6.535450 0.258893
v 0.419469 6.662862 0.173659
v 0.194910 6.609558 0.331511
v 0.322047 7.724669 -0.094346
v 0.210936 7.784544 -0.238273
v 0.195528 7.956664 -0.121082
v 0.306839 7.864210 -0.052628
v 0.654162 6.199805 0.442991
v 0.700331 5.839675 0.378492
v 2.808701 5.022866 0.335479
v 2.721320 5.145463 0.298850
v 2.672460 5.105608 0.412102
v 2.784683 4.990622 0.460314
v 2.796534 5.001236 0.217234
v 2.722944 5.101714 0.182180
v 2.753309 4.943840 0.138147
v 2.679120 5.014048 0.124567
v 2.695155 4.876257 0.126505
v 2.626041 4.953113 0.134663
v 2.651052 4.815814 0.198785
v 2.580183 4.923335 0.197995
v 2.538669 4.771647 0.483549
v 2.609032 4.824683 0.586740
v 2.594754 4.992167 0.469571
v 2.542861 4.908434 0.329763
v 2.897844 4.890423 0.505399
v 3.008731 4.780494 0.557481
v 3.030015 4.777215 0.404848
v 2.922977 4.907547 0.368156
v 2.910151 4.891243 0.233667
v 3.005910 4.751882 0.257055
v 2.957339 4.743195 0.159671
v 2.863175 4.843956 0.138624
v 2.894226 4.679873 0.163192
v 2.794543 4.765827 0.130719
v 2.926318 4.664244 0.266699
v 2.768882 4.724059 0.225163
v 2.955143 4.698965 0.398110
v 2.770271 4.733977 0.348471
v 3.094433 4.368186 0.503396
v 3.156221 4.374758 0.533009
v 3.139912 4.367787 0.604532
v 3.068738 4.365368 0.571502
v 2.737668 4.911357 0.558566
v 2.712747 4.765270 0.585177
v 2.646800 4.492423 0.563856
v 2.698443 4.520880 0.610460
v 2.650280 4.528119 0.664944
v 2.584730 4.497450 0.621311
v 2.628327 4.762001 0.312576
v 2.647605 4.705245 0.457587
v 3.095170 4.384354 0.357299
v 3.102063 4.381169 0.430017
v 3.036265 4.407986 0.412235
v 3.036464 4.403641 0.348213
v 2.829452 4.841419 0.606072
v 2.924670 4.771609 0.653235
v 3.124377 4.418756 0.678194
v 3.176865 4.445172 0.708742
v 3.142418 4.442501 0.771894
v 3.087836 4.414879 0.734183
v 2.954902 4.489561 0.272051
v 2.944243 4.476378 0.217185
v 2.999546 4.465674 0.225015
v 3.007162 4.472147 0.280524
v 3.114180 4.647695 0.474962
v 3.091527 4.647647 0.586360
v 3.047375 4.606534 0.473250
v 3.028301 4.595897 0.546700
v 2.934083 4.681448 0.533598
v 3.022982 4.611387 0.387057
v 3.029657 4.607768 0.319302
v 3.097632 4.638471 0.409306
v 3.097688 4.628308 0.304971
v 3.080585 4.668280 0.631839
v 3.029745 4.665564 0.724693
v 3.023757 4.617694 0.618409
v 2.987338 4.610833 0.672715
v 2.870311 4.690426 0.626258
v 2.961184 4.614998 0.189214
v 3.023443 4.643623 0.170803
v 2.970630 4.618839 0.247695
v 3.026032 4.648407 0.252767
v 3.135648 4.486682 0.607403
v 3.160950 4.490625 0.514043
v 3.088649 4.470374 0.497924
v 3.063836 4.462089 0.568460
v 3.053473 4.496520 0.400516
v 3.059822 4.498783 0.338766
v 3.125110 4.488395 0.425409
v 3.123391 4.485795 0.336815
v 3.104915 4.536990 0.761023
v 3.153619 4.543671 0.679859
v 3.091254 4.508569 0.653774
v 3.056244 4.504432 0.711776
v 2.962012 4.541896 0.200716
v 3.026950 4.542060 0.196600
v 2.971776 4.548166 0.259734
v 3.030181 4.551971 0.268396
v 2.485778 5.121447 0.347888
v 2.554619 5.213748 0.342656
v 2.610685 5.248377 0.238260
v 2.612544 5.188604 0.120514
v 2.576418 5.086619 0.058068
v 2.516871 5.012800 0.086599
v 2.481447 5.017468 0.168145
v 2.470665 5.059509 0.260506
v 2.710009 4.624078 0.587302
v 2.641859 4.580999 0.511714
v 2.565009 4.602983 0.574148
v 2.641179 4.639896 0.640942
v 2.764475 4.740643 0.601484
v 2.763793 4.717437 0.479011
v 1.793435 5.599044 0.123112
v 1.836284 5.686995 0.066230
v 1.901823 5.787455 -0.056590
v 1.819068 5.708723 -0.229166
v 1.706790 5.594704 -0.398740
v 1.664913 5.463318 -0.177652
v 1.679320 5.408907 0.002819
v 1.731670 5.495793 0.108291
v 0.278386 4.577460 -0.394363
v 0.333616 4.212417 -0.617560
v 0.326594 4.450111 0.543381
v 0.317233 4.063525 0.488493
v 0.602108 4.307886 0.356522
v 0.572912 4.613097 0.356816
v 0.730002 4.409743 0.032222
v 0.689754 4.681018 0.042343
v 0.549987 4.637599 -0.253687
v 0.644080 4.345892 -0.319661
v 0.374886 3.805010 0.523980
v 0.080290 3.745909 0.359713
v 0.123593 3.617939 0.354210
v 0.136583 3.956912 -0.396094
v 0.041096 3.797034 -0.061241
v 0.662686 3.961699 0.390835
v 0.816278 4.013794 0.046115
v 0.762583 3.954090 -0.325258
v 0.482977 3.833152 -0.488302
v 0.196252 3.666457 -0.392585
v 0.068200 3.596501 -0.046525
v 0.181519 7.035037 0.458047
v 0.100329 6.947517 0.503157
v 0.082272 6.964933 0.361612
v 0.158616 7.012587 0.316836
v 0.205210 7.569254 -0.273146
v 0.164125 7.405962 -0.214839
v 0.128933 7.170147 -0.184365
v 0.143957 7.020506 -0.239198
v 0.192200 6.894693 -0.310156
v 0.307300 7.549820 -0.125526
v 0.261128 7.416998 -0.105625
v 0.218140 7.184181 -0.077828
v 0.262939 7.019281 -0.121693
v 0.379772 6.895580 -0.179499
v 0.333091 7.677378 0.086086
v 0.314109 7.538456 0.012773
v 0.260328 7.196211 0.081305
v 0.279584 6.994327 0.092857
v 0.409342 6.835366 0.024976
v 0.302298 6.790455 0.190450
v 0.122948 6.765387 0.234249
v 0.182717 6.931536 0.230008
v 0.103870 6.901794 0.275193
v 0.220154 7.314943 -0.074075
v 0.284907 7.435967 0.004909
v 0.253106 7.335704 0.033010
v 0.194911 8.040363 0.064671
v 0.328198 7.885119 0.088015
v 0.346072 7.692835 0.254135
v 0.364235 7.495485 0.119596
v 0.360365 7.531364 0.144860
v 0.335858 7.518477 0.188507
v 0.328117 7.479291 0.171670
v 0.349229 7.376416 0.136792
v 0.358864 7.437415 0.116033
v 0.322367 7.429155 0.168520
v 0.318368 7.376772 0.178135
v 0.285423 7.180877 0.231253
v 0.246190 7.079223 0.269436
v 0.313363 7.477150 0.339151
v 0.319830 7.541947 0.306013
v 0.328394 7.607861 0.405167
v 0.321528 7.487736 0.434503
v 0.274143 7.239467 0.387417
v 0.233855 7.128657 0.422699
v 0.291064 7.354501 0.333319
v 0.288945 7.417652 0.348627
v 0.305271 7.408806 0.445635
v 0.277574 7.336296 0.431819
v 0.366161 7.558743 0.137973
v 0.376452 7.513769 0.075621
v 0.327986 7.518290 0.074534
v 0.327634 7.579452 0.137347
v 0.349805 7.361927 0.101003
v 0.290500 7.357851 0.097591
v 0.314918 7.440639 0.064234
v 0.369976 7.437196 0.066925
v 0.317799 7.292753 0.201120
v 0.295564 7.254358 0.211411
v 0.292952 7.276256 0.137688
v 0.341879 7.299700 0.146856
v 0.303060 7.320905 0.243463
v 0.296853 7.367034 0.270192
v 0.303262 7.290965 0.288613
v 0.291828 7.418108 0.280220
v 0.298357 7.466824 0.276892
v 0.342943 7.548703 0.208492
v 0.327409 7.587003 0.227646
v 0.303915 7.373165 0.223786
v 0.311312 7.339669 0.222391
v 0.327309 7.331818 0.194263
v 0.309004 7.464464 0.225435
v 0.302464 7.419913 0.223759
v 0.315324 7.511685 0.257142
v 0.133763 7.294614 -0.167326
v 0.346431 7.332289 0.161163
v 0.318793 7.496604 0.226226
v 0.227725 4.855610 -0.270097
v 0.931827 2.060002 0.083913
v 0.848761 2.387776 0.155403
v 0.658970 2.339778 0.285605
v 0.722057 2.000920 0.153258
v 1.061339 2.168627 -0.106725
v 0.979299 2.408901 -0.020041
v 0.982052 2.213004 -0.359782
v 0.901080 2.398962 -0.261976
v 0.775782 2.224669 -0.497816
v 0.727659 2.366175 -0.380991
v 0.540982 2.326116 0.097495
v 0.535852 1.982169 0.008907
v 0.401851 2.028875 -0.272085
v 0.436736 2.291049 -0.188334
v 0.535205 2.330658 -0.371805
v 0.496461 2.172518 -0.468245
v 1.349776 0.241639 -0.364170
v 1.208598 0.229179 -0.560874
v 1.103481 0.503948 -0.549206
v 1.189638 0.534661 -0.404872
v 1.085257 0.263230 -0.770610
v 1.008132 0.526444 -0.670353
v 0.783668 0.257578 -0.729471
v 0.810695 0.241765 -0.462365
v 0.819041 0.495181 -0.439582
v 0.841939 0.519668 -0.628043
v 0.879156 0.331537 -0.173820
v 0.856168 0.564782 -0.232677
v 0.961788 0.856946 -0.162911
v 1.110987 0.870055 -0.229825
v 1.049876 1.172639 -0.210815
v 0.900413 1.159599 -0.146966
v 1.125715 0.842372 -0.417934
v 1.125996 1.174097 -0.401446
v 1.078819 0.816441 -0.601271
v 1.083559 1.183594 -0.617501
v 0.957028 0.830382 -0.652929
v 0.887109 1.209815 -0.691637
v 0.743608 1.139989 -0.189816
v 0.824861 0.827938 -0.221912
v 0.810518 0.821064 -0.587617
v 0.761381 0.798036 -0.422871
v 0.633057 1.125787 -0.401628
v 0.681171 1.185400 -0.614644
v 1.043690 0.465253 -0.097947
v 1.251273 0.422793 -0.170558
v 1.162316 0.608443 -0.243385
v 0.996423 0.617039 -0.184085
v 0.629631 2.646274 0.253586
v 0.826819 2.676942 0.216560
v 0.957537 2.655407 0.026511
v 0.889369 2.617789 -0.224622
v 0.711434 2.575990 -0.323824
v 0.473139 2.600757 0.153334
v 0.506601 2.556049 -0.292426
v 0.379627 2.560685 -0.119864
v 0.787775 1.725245 0.086824
v 0.987082 1.771032 0.001477
v 1.160038 1.816325 -0.231883
v 1.075044 1.843466 -0.509460
v 0.828201 1.872940 -0.698349
v 0.575152 1.695989 -0.061783
v 0.466568 1.809848 -0.641856
v 0.385993 1.703106 -0.345117
v 1.538693 0.122503 0.041059
v 1.549381 -0.052099 0.030547
v 1.432358 -0.098209 -0.194776
v 1.493910 0.176991 -0.177128
v 0.982352 -0.077590 0.013613
v 1.013690 -0.048106 0.282423
v 1.031019 0.167750 0.300479
v 0.926192 0.227860 0.095632
v 1.209129 0.209050 0.253303
v 1.111613 0.332877 0.061437
v 1.077350 0.034327 -0.792343
v 0.830259 0.015722 -0.729288
v 1.218136 -0.049501 -0.617823
v 1.318724 -0.053257 -0.394643
v 0.994881 0.041435 -0.251425
v 0.882392 -0.026647 -0.498209
v 1.017454 1.474842 -0.115019
v 0.855486 1.443846 -0.030841
v 1.152316 1.486448 -0.334554
v 1.076736 1.504721 -0.578496
v 0.855202 1.528088 -0.712303
v 0.670954 1.415896 -0.144982
v 0.501420 1.405508 -0.388547
v 0.588676 1.477582 -0.615634
v 0.554981 3.000924 0.453602
v 0.848425 3.049148 0.374288
v 0.780739 3.489133 0.440408
v 0.479938 3.395051 0.538487
v 1.016618 3.050221 0.068487
v 0.969362 3.520433 0.070597
v 0.943828 3.004375 -0.289627
v 0.909567 3.475436 -0.332251
v 0.681936 2.954957 -0.453392
v 0.615651 3.394168 -0.520187
v 0.308289 2.926786 0.299474
v 0.173363 3.297752 0.381024
v 0.361276 2.910264 -0.373065
v 0.198088 2.903636 -0.079154
v 0.086077 3.285470 -0.047106
v 0.266205 3.316974 -0.398306
v 1.305241 0.296913 -0.028273
v 1.372007 0.187884 0.167495
v 1.333680 -0.042078 0.026198
v 1.380871 -0.030555 0.161545
v 1.184331 -0.049738 0.088650
v 1.206953 -0.038848 0.227934
v 0.257006 7.485753 0.559332
v 0.269124 7.403873 0.575438
v 0.221874 7.227774 0.555379
v 0.201623 7.138483 0.561768
v 0.154055 7.386558 0.688988
v 0.148243 7.468043 0.656155
v 0.251491 7.317872 0.569417
v 0.134172 7.193520 0.678243
v 0.148726 7.289874 0.701613
v 0.240068 7.706494 0.566958
v 0.246531 7.586374 0.562029
v 0.123324 7.108221 0.652263
v 0.152135 7.768472 0.647179
v 0.150254 7.577877 0.684554
v 0.175762 7.059955 0.555527
v 0.113688 6.998893 0.615352
v 1.543401 -0.009209 0.254770
v 1.539356 0.101057 0.251309
v 1.161441 0.135950 0.449291
v 1.157519 -0.001277 0.446780
v 1.306726 0.183309 0.460178
v 1.453620 0.165482 0.379212
v 1.303667 -0.031482 0.451308
v 1.440749 -0.029774 0.383208
vt 0.500000 0.250000
vt 1.000000 0.250000
vt 0.875000 0.375000
vt 0.500000 0.500000
vt 1.000000 0.437500
vt 0.500000 0.437500
vt 0.376343 0.235153
vt 0.000000 0.230530
vt 0.000000 0.000000
vt 0.500000 0.000000
vt 0.500000 1.000000
vt 0.500000 0.750000
vt 0.812500 0.562500
vt 0.701797 0.798203
vt 0.000000 0.250000
vt 0.000000 0.125000
vt 0.500000 0.125000
vt 1.000000 0.750000
vt 1.000000 1.000000
vt 1.000000 0.000000
vt 1.000000 0.500000
vt 0.875000 0.500000
vt 0.875000 0.000000
vt 0.750000 0.500000
vt 0.750000 0.000000
vt 0.372192 0.706665
vt 0.745193 0.698624
vt 0.736801 0.763321
vt 0.368195 0.768829
vt 0.875000 1.000000
vt 0.750000 1.000000
vt 0.000000 1.000000
vt 0.250000 1.000000
vt 0.000000 0.500000
vt 0.250000 0.000000
vt 0.752670 0.239777
vt 0.701797 0.000000
vt 0.770920 0.500000
vt 0.728424 0.828018
vt 0.364212 0.830978
vt 0.763428 0.393173
vt 0.380737 0.362793
vt 0.000000 0.750000
vt 1.000000 0.125000
vt 0.062500 0.812500
vt 0.062500 0.500000
vt 0.000000 0.760849
vt 0.000000 0.687729
vt 0.000000 0.833954
vt 0.000000 0.368210
vt 0.000000 0.903931
vt 0.000000 0.204575
vt 0.500000 0.413315
vt 0.000000 0.780975
vt 0.000000 0.800842
vt 0.000000 0.181091
vt 0.000000 0.146362
vt 0.083603 1.000000
vt 0.500000 0.727890
vt 0.220688 1.000000
vt 0.531250 0.941635
vt 0.733414 0.789490
vt 0.738403 0.750961
vt 0.765991 0.429749
vt 0.767181 0.446655
vt 0.768112 0.459824
vt 0.766464 0.436325
vt 0.764816 0.412827
vt 0.385468 0.500000
vt 0.755112 0.583191
vt 0.758972 0.592270
vt 0.759109 0.591232
vt 0.757431 0.604065
vt 0.758835 0.593292
vt 0.755402 0.591293
vt 0.746902 0.671082
vt 0.752075 0.645462
vt 0.742645 0.718201
vt 0.744354 0.705124
vt 0.750656 0.656372
vt 0.737396 0.758774
vt 0.744553 0.703552
vt 0.752884 0.639160
vt 0.742752 0.717422
vt 0.740952 0.731293
vt 0.753479 0.634567
vt 0.756042 0.614853
vt 0.761536 0.572418
vt 0.752304 0.643753
vt 0.763229 0.559326
vt 0.131302 0.000000
vt 0.126083 0.000000
vt 0.075250 0.000000
vt 1.000000 0.723965
vt 1.000000 0.903192
vt 1.000000 0.861982
vt 0.889179 0.389179
vt 0.873982 0.373982
vt 0.696100 0.196100
vt 0.765664 0.265664
vt 0.631912 0.828796
vt 0.632813 0.828796
vt 0.632339 0.828796
vt 0.630768 0.828812
vt 0.631332 0.828796
vt 0.633713 0.828781
vt 0.631805 0.828796
usemtl None
s 1
f 1/1 2/2 3/3 4/4
f 5/1 6/2 7/5 8/6
f 9/7 10/8 11/9 12/10
f 12/11 13/12 14/13 15/14
f 4/4 3/3 14/13 13/12
f 1/1 18/15 16/16 17/17
f 19/12 20/18 21/19 22/11
f 19/12 8/6 7/5 20/18
f 23/9 24/10 25/17 26/16
f 27/20 28/21 29/22 30/23
f 31/24 32/4 3/10 2/25
f 33/26 34/27 35/28 36/29
f 26/30 37/31 31/24 29/22
f 38/32 39/33 40/33 41/32
f 42/34 38/32 41/32 43/34
f 44/9 42/34 43/34 45/9
f 46/35 44/9 45/9 47/35
f 48/10 46/35 47/35 49/10
f 50/4 48/10 49/10 51/4
f 52/11 50/4 51/4 53/11
f 39/33 52/11 53/11 40/33
f 54/33 55/33 56/32 57/32
f 58/34 57/32 56/32 59/34
f 60/9 58/34 59/34 61/9
f 60/9 61/9 62/35 63/35
f 63/35 62/35 64/10 65/10
f 65/10 64/10 66/4 67/4
f 68/11 67/4 66/4 69/11
f 54/33 68/11 69/11 55/33
f 70/33 71/33 72/32 73/32
f 74/34 73/32 72/32 75/34
f 76/9 74/34 75/34 77/9
f 76/9 77/9 78/35 79/35
f 79/35 78/35 80/10 81/10
f 81/10 80/10 82/4 83/4
f 83/4 82/4 84/11 85/11
f 70/33 85/11 84/11 71/33
f 86/33 70/33 73/32 87/32
f 73/32 74/34 88/34 87/32
f 74/34 76/9 89/9 88/34
f 89/9 76/9 79/35 90/35
f 90/35 79/35 81/10 91/10
f 91/10 81/10 83/4 92/4
f 83/4 85/11 93/11 92/4
f 85/11 70/33 86/33 93/11
f 94/36 15/37 95/24 96/38
f 97/31 98/39 96/38 95/24
f 22/11 99/40 98/39 97/31
f 100/36 101/41 102/42 103/7
f 1/1 4/4 104/34 18/15
f 94/36 9/7 12/10 15/37
f 13/12 12/11 11/32 105/43
f 104/34 4/4 13/12 105/43
f 2/2 1/1 17/17 30/44
f 106/45 19/12 22/11 97/32
f 8/6 19/12 106/45 107/46
f 108/44 6/2 5/1 25/17
f 109/47 110/48 33/26 36/29
f 99/40 22/11 21/32 111/49
f 112/50 113/8 103/7 102/42
f 114/34 115/51 116/32 117/34
f 114/34 117/34 118/9 119/52
f 119/52 118/9 120/35 121/35
f 121/35 120/35 122/10 123/10
f 124/53 123/10 122/10 125/4
f 126/11 127/11 128/33 129/33
f 130/54 131/34 132/34 133/55
f 134/56 135/9 136/9 137/57
f 136/9 135/9 138/35 139/35
f 139/35 138/35 140/10 141/10
f 141/10 140/10 142/4 143/4
f 144/4 145/11 146/55 147/34
f 148/58 149/33 129/33 128/33
f 150/11 151/11 152/33 153/33
f 154/59 127/11 126/11 155/11
f 135/9 134/56 119/52 121/35
f 138/35 135/9 121/35 123/10
f 140/10 138/35 123/10 124/53
f 156/57 157/10 158/4 159/34
f 131/34 134/56 137/57 132/34
f 119/52 134/56 131/34 114/34
f 115/51 114/34 131/34 130/54
f 160/32 130/54 133/55 161/32
f 162/11 163/33 164/32 165/55
f 166/10 167/57 168/9 169/35
f 170/34 171/55 133/55 132/34
f 172/4 170/34 132/34 143/4
f 173/11 172/4 143/4 174/11
f 171/55 173/11 174/11 133/55
f 175/4 176/10 141/10 143/4
f 177/34 175/4 143/4 132/34
f 178/57 177/34 132/34 137/57
f 176/10 178/57 137/57 141/10
f 179/55 180/32 161/32 133/55
f 181/11 179/55 133/55 174/11
f 182/33 181/11 174/11 183/33
f 180/32 182/33 183/33 161/32
f 184/35 185/9 136/9 139/35
f 186/10 184/35 139/35 141/10
f 187/57 186/10 141/10 137/57
f 185/9 187/57 137/57 136/9
f 188/55 171/55 170/34 189/34
f 189/34 170/34 172/4 190/4
f 191/11 190/4 172/4 173/11
f 188/55 191/11 173/11 171/55
f 192/4 193/10 176/10 175/4
f 194/34 192/4 175/4 177/34
f 194/34 177/34 178/57 195/57
f 195/57 178/57 176/10 193/10
f 180/32 179/55 196/55 197/32
f 165/55 196/55 198/11 162/11
f 162/11 198/11 199/33 163/33
f 182/33 180/32 197/32 199/33
f 200/35 201/9 185/9 184/35
f 200/35 184/35 186/10 202/10
f 203/57 202/10 186/10 187/57
f 203/57 187/57 185/9 201/9
f 146/55 188/55 189/34 147/34
f 147/34 189/34 190/4 144/4
f 190/4 191/11 145/11 144/4
f 191/11 188/55 146/55 145/11
f 193/10 192/4 158/4 157/10
f 192/4 194/34 159/34 158/4
f 159/34 194/34 195/57 156/57
f 156/57 195/57 193/10 157/10
f 201/9 200/35 169/35 168/9
f 169/35 200/35 202/10 166/10
f 202/10 203/57 167/57 166/10
f 167/57 203/57 201/9 168/9
f 204/33 205/32 116/32 128/33
f 205/32 206/34 117/34 116/32
f 206/34 207/9 118/9 117/34
f 118/9 207/9 208/35 120/35
f 120/35 208/35 209/10 122/10
f 209/10 210/4 125/4 122/10
f 210/4 211/11 127/11 125/4
f 211/11 204/33 128/33 127/11
f 155/11 212/11 213/33 149/33
f 214/11 212/11 155/11 126/11
f 215/33 214/11 126/11 129/33
f 213/33 215/33 129/33 149/33
f 150/11 153/33 213/33 212/11
f 151/11 150/11 212/11 214/11
f 152/33 151/11 214/11 215/33
f 153/33 152/33 215/33 213/33
f 115/51 148/58 128/33 116/32
f 115/51 130/54 160/32 148/58
f 149/33 148/58 160/32 216/60
f 155/11 149/33 216/60 217/11
f 216/60 160/32 161/32 183/33
f 217/11 216/60 183/33 174/11
f 142/4 217/11 174/11 143/4
f 142/4 154/59 155/11 217/11
f 154/59 142/4 140/10 124/53
f 154/59 124/53 125/4 127/11
f 218/33 54/33 57/32 219/32
f 57/32 58/34 220/34 219/32
f 58/34 60/9 221/9 220/34
f 221/9 60/9 63/35 222/35
f 222/35 63/35 65/10 223/10
f 223/10 65/10 67/4 224/4
f 67/4 68/11 225/11 224/4
f 68/11 54/33 218/33 225/11
f 86/33 87/32 205/32 204/33
f 87/32 88/34 206/34 205/32
f 88/34 89/9 207/9 206/34
f 207/9 89/9 90/35 208/35
f 208/35 90/35 91/10 209/10
f 91/10 92/4 210/4 209/10
f 92/4 93/11 211/11 210/4
f 93/11 86/33 204/33 211/11
f 40/33 106/45 97/32 41/32
f 41/32 97/31 95/24 43/34
f 95/24 15/37 45/9 43/34
f 15/14 14/13 47/35 45/9
f 14/13 3/3 49/10 47/35
f 3/10 32/4 51/4 49/10
f 32/4 107/61 53/11 51/4
f 53/11 107/46 106/45 40/33
f 8/6 107/46 37/15 5/1
f 226/10 227/9 228/9 229/10
f 230/10 231/9 232/9 233/10
f 231/19 234/21 235/21 232/19
f 236/20 237/20 235/21 234/21
f 226/10 229/10 237/20 236/20
f 238/20 230/10 233/10 239/20
f 240/10 241/10 242/10 233/10
f 243/20 244/20 245/10 246/10
f 228/20 243/20 246/10 229/10
f 244/20 247/20 242/10 245/10
f 248/9 240/10 233/10 232/9
f 249/21 248/19 232/19 235/21
f 249/21 235/21 237/20 250/20
f 250/20 237/20 229/10 251/10
f 252/10 246/10 245/10 253/10
f 251/10 229/10 246/10 252/10
f 241/10 253/10 245/10 242/10
f 37/31 107/61 32/4 31/24
f 254/62 255/63 256/40 257/40
f 257/40 256/40 258/49 259/49
f 260/8 261/8 262/7 263/7
f 264/8 265/8 266/7 267/7
f 9/7 268/7 269/8 10/8
f 262/7 270/36 271/36 263/7
f 267/7 266/7 272/36 273/36
f 94/36 274/36 268/7 9/7
f 271/36 275/64 276/65 100/36
f 272/36 277/38 278/66 273/36
f 96/38 279/38 274/36 94/36
f 280/39 279/38 96/38 98/39
f 281/40 280/39 98/39 99/40
f 282/49 281/40 99/40 111/49
f 268/7 266/7 265/8 269/8
f 274/36 272/36 266/7 268/7
f 279/38 277/38 272/36 274/36
f 280/39 283/39 277/38 279/38
f 281/40 284/40 283/39 280/39
f 282/49 285/49 284/40 281/40
f 286/36 287/67 288/68 270/36
f 113/8 260/8 263/7 103/7
f 263/7 271/36 100/36 103/7
f 33/26 110/48 289/34 290/69
f 34/27 33/26 290/69 291/38
f 276/65 292/70 34/27 291/38
f 293/38 294/71 295/72 296/38
f 297/38 298/73 299/74 300/38
f 301/75 278/66 277/38 302/76
f 284/40 256/40 255/63 283/39
f 285/49 258/49 256/40 284/40
f 303/77 304/78 305/79 306/80
f 302/76 307/81 308/82 301/75
f 309/83 310/84 311/85 312/86
f 305/79 35/28 34/27 292/70
f 313/38 314/38 315/38 316/38
f 317/38 318/38 319/38 320/38
f 321/87 322/38 323/38 324/88
f 325/89 326/89 309/83 327/83
f 328/86 312/86 303/77 329/77
f 330/72 331/90 314/38 313/38
f 301/75 324/88 323/38 278/66
f 287/67 278/66 323/38 320/38
f 275/64 288/68 319/38 315/38
f 292/70 276/65 314/38 331/90
f 326/89 324/88 301/75 308/82
f 325/89 321/87 324/88 326/89
f 298/73 332/87 333/89 334/83
f 335/77 294/71 299/74 336/86
f 331/90 330/72 337/80 306/80
f 292/70 331/90 306/80 305/79
f 288/68 275/64 271/36 270/36
f 338/8 339/7 262/7 261/8
f 339/7 286/36 270/36 262/7
f 294/71 293/38 300/38 299/74
f 298/73 297/38 340/38 332/87
f 304/78 303/77 312/86 311/85
f 310/84 309/83 326/89 308/82
f 316/38 315/38 319/38 318/38
f 322/38 317/38 320/38 323/38
f 327/83 309/83 312/86 328/86
f 329/77 303/77 306/80 337/80
f 287/67 320/38 319/38 288/68
f 276/65 275/64 315/38 314/38
f 298/73 334/83 336/86 299/74
f 294/71 335/77 341/80 295/72
f 293/38 296/38 313/38 316/38
f 300/38 293/38 316/38 318/38
f 297/38 300/38 318/38 317/38
f 340/38 297/38 317/38 322/38
f 332/87 340/38 322/38 321/87
f 333/89 332/87 321/87 325/89
f 334/83 333/89 325/89 327/83
f 336/86 334/83 327/83 328/86
f 335/77 336/86 328/86 329/77
f 341/80 335/77 329/77 337/80
f 295/72 341/80 337/80 330/72
f 296/38 295/72 330/72 313/38
f 276/65 291/38 101/41 100/36
f 102/42 101/41 291/38 290/69
f 112/50 102/42 290/69 289/34
f 286/36 273/36 278/66 287/67
f 339/7 267/7 273/36 286/36
f 338/8 264/8 267/7 339/7
f 277/38 283/39 255/63 302/76
f 307/81 302/76 255/63 254/62
f 17/17 16/16 342/9 343/10
f 26/16 25/17 5/1 37/15
f 2/25 30/23 29/22 31/24
f 26/30 29/22 28/21 23/19
f 30/44 17/17 343/10 27/20
f 344/20 108/44 25/17 24/10
f 227/9 226/10 343/10 342/9
f 231/9 230/10 24/10 23/9
f 28/21 234/21 231/19 23/19
f 27/20 236/20 234/21 28/21
f 343/10 226/10 236/20 27/20
f 230/10 238/20 344/20 24/10
f 345/9 346/10 347/10 348/9
f 345/19 348/19 349/21 350/21
f 350/21 349/21 351/20 352/20
f 352/20 351/20 353/10 354/10
f 346/10 355/10 356/10 347/10
f 357/10 358/10 359/10 360/10
f 354/10 353/10 359/10 358/10
f 355/10 357/10 360/10 356/10
f 361/21 362/21 363/20 364/20
f 365/10 364/20 363/20 366/10
f 367/10 368/10 369/10 370/10
f 365/10 366/10 368/10 367/10
f 371/10 370/10 369/10 372/10
f 373/10 374/10 375/9 376/9
f 376/19 375/19 377/21 378/21
f 378/21 377/21 379/20 380/20
f 379/20 381/10 382/10 380/20
f 383/10 374/10 373/10 384/10
f 385/10 386/10 387/10 388/10
f 381/10 386/10 385/10 382/10
f 387/10 383/10 384/10 388/10
f 389/10 390/10 391/9 392/9
f 361/21 392/19 391/19 362/21
f 371/10 372/10 390/10 389/10
f 393/10 394/9 348/9 347/10
f 348/19 394/19 395/21 349/21
f 349/21 395/21 396/20 351/20
f 351/20 396/20 397/10 353/10
f 398/10 393/10 347/10 356/10
f 399/10 400/10 360/10 359/10
f 353/10 397/10 399/10 359/10
f 400/10 398/10 356/10 360/10
f 346/10 345/9 401/9 402/10
f 401/19 345/19 350/21 403/21
f 403/21 350/21 352/20 404/20
f 404/20 352/20 354/10 405/10
f 355/10 346/10 402/10 406/10
f 407/10 358/10 357/10 408/10
f 354/10 358/10 407/10 405/10
f 357/10 355/10 406/10 408/10
f 409/21 410/21 411/21 412/21
f 413/10 414/10 415/10 416/10
f 415/10 414/10 417/10 418/10
f 365/10 367/10 419/10 420/10
f 421/20 364/20 365/10 420/10
f 422/21 361/21 364/20 421/20
f 410/21 361/21 422/21 411/21
f 371/10 389/10 417/10 414/10
f 423/10 371/10 414/10 413/10
f 370/10 371/10 423/10 424/10
f 419/10 367/10 370/10 424/10
f 390/10 373/10 376/9 391/9
f 425/9 375/9 374/10 426/10
f 391/19 376/19 378/21 362/21
f 427/21 377/21 375/19 425/19
f 362/21 378/21 380/20 363/20
f 379/20 377/21 427/21 428/20
f 380/20 382/10 366/10 363/20
f 381/10 379/20 428/20 429/10
f 384/10 373/10 390/10 372/10
f 374/10 383/10 430/10 426/10
f 368/10 385/10 388/10 369/10
f 431/10 387/10 386/10 432/10
f 382/10 385/10 368/10 366/10
f 386/10 381/10 429/10 432/10
f 388/10 384/10 372/10 369/10
f 430/10 383/10 387/10 431/10
f 433/10 434/9 394/9 393/10
f 434/9 433/10 435/10 436/9
f 394/19 434/19 437/21 395/21
f 438/21 437/21 434/19 436/19
f 395/21 437/21 439/20 396/20
f 440/20 439/20 437/21 438/21
f 396/20 439/20 441/10 397/10
f 442/10 441/10 439/20 440/20
f 443/10 433/10 393/10 398/10
f 433/10 443/10 444/10 435/10
f 445/10 446/10 400/10 399/10
f 446/10 445/10 447/10 448/10
f 397/10 441/10 445/10 399/10
f 447/10 445/10 441/10 442/10
f 446/10 443/10 398/10 400/10
f 443/10 446/10 448/10 444/10
f 240/10 248/9 436/9 435/10
f 248/19 249/21 438/21 436/19
f 438/21 249/21 250/20 440/20
f 440/20 250/20 251/10 442/10
f 241/10 240/10 435/10 444/10
f 447/10 252/10 253/10 448/10
f 442/10 251/10 252/10 447/10
f 253/10 241/10 444/10 448/10
f 421/20 420/10 419/10 424/10
f 422/21 421/20 424/10 423/10
f 423/10 413/10 411/21 422/21
f 449/91 450/92 418/10 417/10
f 392/9 449/93 417/10 389/10
f 449/94 392/19 361/21 410/21
f 409/21 450/95 449/96 410/21
f 451/97 452/98 412/21 411/21
f 453/99 451/97 411/21 413/10
f 416/10 454/100 453/99 413/10
f 451/97 453/99 454/100 452/98
f 426/10 402/10 401/9 425/9
f 425/9 401/9 403/21 427/21
f 427/21 403/21 404/20 428/20
f 428/20 404/20 405/10 429/10
f 430/10 406/10 402/10 426/10
f 432/10 407/10 408/10 431/10
f 429/10 405/10 407/10 432/10
f 431/10 408/10 406/10 430/10
f 311/85 455/101 456/102 304/78
f 307/81 457/103 458/104 308/82
f 459/40 460/49 461/49 462/40
f 308/82 458/104 463/105 310/84
f 464/40 465/49 466/49 467/40
f 305/79 468/106 469/107 35/28
f 470/40 471/49 465/49 464/40
f 457/103 470/40 464/40 458/104
f 467/40 463/105 458/104 464/40
f 462/40 456/102 455/101 459/40
f 472/40 469/107 468/106 473/40
f 474/49 472/40 473/40 475/49
f 36/29 35/28 469/107 472/40
f 109/47 36/29 472/40 474/49
f 476/106 254/62 257/40 477/40
f 477/40 257/40 259/49 478/49
f 304/78 456/102 468/106 305/79
f 462/40 461/49 475/49 473/40
f 310/84 463/105 455/101 311/85
f 467/40 466/49 460/49 459/40
f 463/105 467/40 459/40 455/101
f 456/102 462/40 473/40 468/106
f 457/103 307/81 254/62 476/106
f 470/40 457/103 476/106 477/40
f 471/49 470/40 477/40 478/49
f 55/33 39/33 38/32 56/32
f 56/32 38/32 42/34 59/34
f 59/34 42/34 44/9 61/9
f 61/9 44/9 46/35 62/35
f 62/35 46/35 48/10 64/10
f 64/10 48/10 50/4 66/4
f 66/4 50/4 52/11 69/11
f 69/11 52/11 39/33 55/33
f 219/32 72/32 71/33 218/33
f 220/34 75/34 72/32 219/32
f 221/9 77/9 75/34 220/34
f 222/35 78/35 77/9 221/9
f 223/10 80/10 78/35 222/35
f 224/4 82/4 80/10 223/10
f 225/11 84/11 82/4 224/4
f 218/33 71/33 84/11 225/11
f 233/10 242/10 247/20 239/20
f 199/33 197/32 164/32 163/33
f 182/33 199/33 198/11 181/11
f 181/11 198/11 196/55 179/55
f 197/32 196/55 165/55 164/32
f 479/21 480/21 409/21 412/21
f 481/10 482/10 416/10 415/10
f 483/10 481/10 415/10 418/10
f 484/92 483/10 418/10 450/92
f 480/21 484/95 450/95 409/21
f 485/10 482/10 481/10 483/10
f 486/92 485/10 483/10 484/92
f 479/21 486/95 484/95 480/21
f 454/10 416/10 482/10 485/10
f 452/92 454/10 485/10 486/92
f 412/21 452/95 486/95 479/21
f 487/1 488/4 489/3 490/2
f 491/1 492/6 7/5 6/2
f 493/7 494/10 11/9 10/8
f 494/11 495/14 496/13 497/12
f 488/4 497/12 496/13 489/3
f 16/16 18/15 487/1 498/17
f 499/12 500/11 21/19 20/18
f 499/12 20/18 7/5 492/6
f 501/9 502/16 503/17 504/10
f 505/20 506/23 507/22 508/21
f 509/24 490/25 489/10 510/4
f 511/26 512/29 513/28 514/27
f 502/30 507/22 509/24 515/31
f 516/32 517/32 518/33 519/33
f 520/34 521/34 517/32 516/32
f 522/9 523/9 521/34 520/34
f 524/35 525/35 523/9 522/9
f 526/10 527/10 525/35 524/35
f 528/4 529/4 527/10 526/10
f 530/11 531/11 529/4 528/4
f 519/33 518/33 531/11 530/11
f 532/33 533/32 534/32 535/33
f 536/34 537/34 534/32 533/32
f 538/9 539/9 537/34 536/34
f 538/9 540/35 541/35 539/9
f 540/35 542/10 543/10 541/35
f 542/10 544/4 545/4 543/10
f 546/11 547/11 545/4 544/4
f 532/33 535/33 547/11 546/11
f 548/33 549/32 550/32 551/33
f 552/34 553/34 550/32 549/32
f 554/9 555/9 553/34 552/34
f 554/9 556/35 557/35 555/9
f 556/35 558/10 559/10 557/35
f 558/10 560/4 561/4 559/10
f 560/4 562/11 563/11 561/4
f 548/33 551/33 563/11 562/11
f 564/33 565/32 549/32 548/33
f 549/32 565/32 566/34 552/34
f 552/34 566/34 567/9 554/9
f 567/9 568/35 556/35 554/9
f 568/35 569/10 558/10 556/35
f 569/10 570/4 560/4 558/10
f 560/4 570/4 571/11 562/11
f 562/11 571/11 564/33 548/33
f 572/36 573/38 574/24 495/37
f 575/31 574/24 573/38 576/39
f 500/11 575/31 576/39 577/40
f 578/36 579/7 580/42 581/41
f 487/1 18/15 104/34 488/4
f 572/36 495/37 494/10 493/7
f 497/12 105/43 11/32 494/11
f 104/34 105/43 497/12 488/4
f 490/2 506/44 498/17 487/1
f 582/45 575/32 500/11 499/12
f 492/6 583/46 582/45 499/12
f 108/44 503/17 491/1 6/2
f 109/47 512/29 511/26 110/48
f 577/40 111/49 21/32 500/11
f 112/50 580/42 579/7 113/8
f 584/34 585/34 586/32 587/51
f 584/34 588/52 589/9 585/34
f 588/52 590/35 591/35 589/9
f 590/35 592/10 593/10 591/35
f 594/53 595/4 593/10 592/10
f 596/11 597/33 598/33 599/11
f 600/54 601/55 602/34 603/34
f 604/56 605/57 606/9 607/9
f 606/9 608/35 609/35 607/9
f 608/35 610/10 611/10 609/35
f 610/10 612/4 613/4 611/10
f 614/4 615/34 616/55 617/11
f 618/58 598/33 597/33 619/33
f 620/11 621/33 622/33 623/11
f 624/59 625/11 596/11 599/11
f 607/9 590/35 588/52 604/56
f 609/35 592/10 590/35 607/9
f 611/10 594/53 592/10 609/35
f 626/57 627/34 628/4 629/10
f 603/34 602/34 605/57 604/56
f 588/52 584/34 603/34 604/56
f 587/51 600/54 603/34 584/34
f 630/32 631/32 601/55 600/54
f 632/11 633/55 634/32 635/33
f 636/10 637/35 638/9 639/57
f 640/34 602/34 601/55 641/55
f 642/4 612/4 602/34 640/34
f 643/11 644/11 612/4 642/4
f 641/55 601/55 644/11 643/11
f 645/4 612/4 610/10 646/10
f 647/34 602/34 612/4 645/4
f 648/57 605/57 602/34 647/34
f 646/10 610/10 605/57 648/57
f 649/55 601/55 631/32 650/32
f 651/11 644/11 601/55 649/55
f 652/33 653/33 644/11 651/11
f 650/32 631/32 653/33 652/33
f 654/35 608/35 606/9 655/9
f 656/10 610/10 608/35 654/35
f 657/57 605/57 610/10 656/10
f 655/9 606/9 605/57 657/57
f 658/55 659/34 640/34 641/55
f 659/34 660/4 642/4 640/34
f 661/11 643/11 642/4 660/4
f 658/55 641/55 643/11 661/11
f 662/4 645/4 646/10 663/10
f 664/34 647/34 645/4 662/4
f 664/34 665/57 648/57 647/34
f 665/57 663/10 646/10 648/57
f 650/32 666/32 667/55 649/55
f 633/55 632/11 668/11 667/55
f 632/11 635/33 669/33 668/11
f 652/33 669/33 666/32 650/32
f 670/35 654/35 655/9 671/9
f 670/35 672/10 656/10 654/35
f 673/57 657/57 656/10 672/10
f 673/57 671/9 655/9 657/57
f 616/55 615/34 659/34 658/55
f 615/34 614/4 660/4 659/34
f 660/4 614/4 617/11 661/11
f 661/11 617/11 616/55 658/55
f 663/10 629/10 628/4 662/4
f 662/4 628/4 627/34 664/34
f 627/34 626/57 665/57 664/34
f 626/57 629/10 663/10 665/57
f 671/9 638/9 637/35 670/35
f 637/35 636/10 672/10 670/35
f 672/10 636/10 639/57 673/57
f 639/57 638/9 671/9 673/57
f 674/33 598/33 586/32 675/32
f 675/32 586/32 585/34 676/34
f 676/34 585/34 589/9 677/9
f 589/9 591/35 678/35 677/9
f 591/35 593/10 679/10 678/35
f 679/10 593/10 595/4 680/4
f 680/4 595/4 599/11 681/11
f 681/11 599/11 598/33 674/33
f 625/11 619/33 682/33 683/11
f 684/11 596/11 625/11 683/11
f 685/33 597/33 596/11 684/11
f 682/33 619/33 597/33 685/33
f 620/11 683/11 682/33 621/33
f 623/11 684/11 683/11 620/11
f 622/33 685/33 684/11 623/11
f 621/33 682/33 685/33 622/33
f 587/51 586/32 598/33 618/58
f 587/51 618/58 630/32 600/54
f 619/33 686/60 630/32 618/58
f 625/11 687/11 686/60 619/33
f 686/60 653/33 631/32 630/32
f 687/11 644/11 653/33 686/60
f 613/4 612/4 644/11 687/11
f 613/4 687/11 625/11 624/59
f 624/59 594/53 611/10 613/4
f 624/59 599/11 595/4 594/53
f 688/33 689/32 533/32 532/33
f 533/32 689/32 690/34 536/34
f 536/34 690/34 691/9 538/9
f 691/9 692/35 540/35 538/9
f 692/35 693/10 542/10 540/35
f 693/10 694/4 544/4 542/10
f 544/4 694/4 695/11 546/11
f 546/11 695/11 688/33 532/33
f 564/33 674/33 675/32 565/32
f 565/32 675/32 676/34 566/34
f 566/34 676/34 677/9 567/9
f 677/9 678/35 568/35 567/9
f 678/35 679/10 569/10 568/35
f 569/10 679/10 680/4 570/4
f 570/4 680/4 681/11 571/11
f 571/11 681/11 674/33 564/33
f 518/33 517/32 575/32 582/45
f 517/32 521/34 574/24 575/31
f 574/24 521/34 523/9 495/37
f 495/14 523/9 525/35 496/13
f 496/13 525/35 527/10 489/3
f 489/10 527/10 529/4 510/4
f 510/4 529/4 531/11 583/61
f 531/11 518/33 582/45 583/46
f 492/6 491/1 515/15 583/46
f 696/10 697/10 228/9 227/9
f 698/10 699/10 700/9 701/9
f 701/19 700/19 702/21 703/21
f 704/20 703/21 702/21 705/20
f 696/10 704/20 705/20 697/10
f 238/20 239/20 699/10 698/10
f 706/10 699/10 707/10 708/10
f 243/20 709/10 710/10 244/20
f 228/20 697/10 709/10 243/20
f 244/20 710/10 707/10 247/20
f 711/9 700/9 699/10 706/10
f 712/21 702/21 700/19 711/19
f 712/21 713/20 705/20 702/21
f 713/20 714/10 697/10 705/20
f 715/10 716/10 710/10 709/10
f 714/10 715/10 709/10 697/10
f 708/10 707/10 710/10 716/10
f 515/31 509/24 510/4 583/61
f 717/62 718/40 719/40 720/63
f 718/40 259/49 258/49 719/40
f 260/8 721/7 722/7 261/8
f 264/8 723/7 724/7 265/8
f 493/7 10/8 269/8 725/7
f 722/7 721/7 726/36 727/36
f 723/7 728/36 729/36 724/7
f 572/36 493/7 725/7 730/36
f 726/36 578/36 731/65 732/64
f 729/36 728/36 733/66 734/38
f 573/38 572/36 730/36 735/38
f 736/39 576/39 573/38 735/38
f 737/40 577/40 576/39 736/39
f 282/49 111/49 577/40 737/40
f 725/7 269/8 265/8 724/7
f 730/36 725/7 724/7 729/36
f 735/38 730/36 729/36 734/38
f 736/39 735/38 734/38 738/39
f 737/40 736/39 738/39 739/40
f 282/49 737/40 739/40 285/49
f 740/36 727/36 741/68 742/67
f 113/8 579/7 721/7 260/8
f 721/7 579/7 578/36 726/36
f 511/26 743/69 289/34 110/48
f 514/27 744/38 743/69 511/26
f 731/65 744/38 514/27 745/70
f 746/38 747/38 748/72 749/71
f 750/38 751/38 752/74 753/73
f 754/75 755/76 734/38 733/66
f 739/40 738/39 720/63 719/40
f 285/49 739/40 719/40 258/49
f 756/77 757/80 758/79 759/78
f 755/76 754/75 760/82 761/81
f 762/83 763/86 764/85 765/84
f 758/79 745/70 514/27 513/28
f 766/38 767/38 768/38 769/38
f 770/38 771/38 772/38 773/38
f 774/87 775/88 776/38 777/38
f 778/89 779/83 762/83 780/89
f 781/86 782/77 756/77 763/86
f 783/72 766/38 769/38 784/90
f 754/75 733/66 776/38 775/88
f 742/67 771/38 776/38 733/66
f 732/64 768/38 772/38 741/68
f 745/70 784/90 769/38 731/65
f 780/89 760/82 754/75 775/88
f 778/89 780/89 775/88 774/87
f 753/73 785/83 786/89 787/87
f 788/77 789/86 752/74 749/71
f 784/90 757/80 790/80 783/72
f 745/70 758/79 757/80 784/90
f 741/68 727/36 726/36 732/64
f 338/8 261/8 722/7 791/7
f 791/7 722/7 727/36 740/36
f 749/71 752/74 751/38 746/38
f 753/73 787/87 792/38 750/38
f 759/78 764/85 763/86 756/77
f 765/84 760/82 780/89 762/83
f 767/38 773/38 772/38 768/38
f 777/38 776/38 771/38 770/38
f 779/83 781/86 763/86 762/83
f 782/77 790/80 757/80 756/77
f 742/67 741/68 772/38 771/38
f 731/65 769/38 768/38 732/64
f 753/73 752/74 789/86 785/83
f 749/71 748/72 793/80 788/77
f 746/38 767/38 766/38 747/38
f 751/38 773/38 767/38 746/38
f 750/38 770/38 773/38 751/38
f 792/38 777/38 770/38 750/38
f 787/87 774/87 777/38 792/38
f 786/89 778/89 774/87 787/87
f 785/83 779/83 778/89 786/89
f 789/86 781/86 779/83 785/83
f 788/77 782/77 781/86 789/86
f 793/80 790/80 782/77 788/77
f 748/72 783/72 790/80 793/80
f 747/38 766/38 783/72 748/72
f 731/65 578/36 581/41 744/38
f 580/42 743/69 744/38 581/41
f 112/50 289/34 743/69 580/42
f 740/36 742/67 733/66 728/36
f 791/7 740/36 728/36 723/7
f 338/8 791/7 723/7 264/8
f 734/38 755/76 720/63 738/39
f 761/81 717/62 720/63 755/76
f 498/17 794/10 342/9 16/16
f 502/16 515/15 491/1 503/17
f 490/25 509/24 507/22 506/23
f 502/30 501/19 508/21 507/22
f 506/44 505/20 794/10 498/17
f 344/20 504/10 503/17 108/44
f 227/9 342/9 794/10 696/10
f 701/9 501/9 504/10 698/10
f 508/21 501/19 701/19 703/21
f 505/20 508/21 703/21 704/20
f 794/10 505/20 704/20 696/10
f 698/10 504/10 344/20 238/20
f 795/9 796/9 797/10 798/10
f 795/19 799/21 800/21 796/19
f 799/21 801/20 802/20 800/21
f 801/20 803/10 804/10 802/20
f 798/10 797/10 805/10 806/10
f 807/10 808/10 809/10 810/10
f 803/10 810/10 809/10 804/10
f 806/10 805/10 808/10 807/10
f 811/21 812/20 813/20 814/21
f 815/10 816/10 813/20 812/20
f 817/10 818/10 819/10 820/10
f 815/10 817/10 820/10 816/10
f 821/10 822/10 819/10 818/10
f 823/10 824/9 825/9 826/10
f 824/19 827/21 828/21 825/19
f 827/21 829/20 830/20 828/21
f 830/20 829/20 831/10 832/10
f 833/10 834/10 823/10 826/10
f 835/10 836/10 837/10 838/10
f 832/10 831/10 835/10 838/10
f 837/10 836/10 834/10 833/10
f 839/10 840/9 841/9 842/10
f 811/21 814/21 841/19 840/19
f 821/10 839/10 842/10 822/10
f 843/10 797/10 796/9 844/9
f 796/19 800/21 845/21 844/19
f 800/21 802/20 846/20 845/21
f 802/20 804/10 847/10 846/20
f 848/10 805/10 797/10 843/10
f 849/10 809/10 808/10 850/10
f 804/10 809/10 849/10 847/10
f 850/10 808/10 805/10 848/10
f 798/10 851/10 852/9 795/9
f 852/19 853/21 799/21 795/19
f 853/21 854/20 801/20 799/21
f 854/20 855/10 803/10 801/20
f 806/10 856/10 851/10 798/10
f 857/10 858/10 807/10 810/10
f 803/10 855/10 857/10 810/10
f 807/10 858/10 856/10 806/10
f 859/21 860/21 861/21 862/21
f 863/10 864/10 865/10 866/10
f 865/10 867/10 868/10 866/10
f 815/10 869/10 870/10 817/10
f 871/20 869/10 815/10 812/20
f 872/21 871/20 812/20 811/21
f 862/21 861/21 872/21 811/21
f 821/10 866/10 868/10 839/10
f 873/10 863/10 866/10 821/10
f 818/10 874/10 873/10 821/10
f 870/10 874/10 818/10 817/10
f 842/10 841/9 824/9 823/10
f 875/9 876/10 826/10 825/9
f 841/19 814/21 827/21 824/19
f 877/21 875/19 825/19 828/21
f 814/21 813/20 829/20 827/21
f 830/20 878/20 877/21 828/21
f 829/20 813/20 816/10 831/10
f 832/10 879/10 878/20 830/20
f 834/10 822/10 842/10 823/10
f 826/10 876/10 880/10 833/10
f 820/10 819/10 836/10 835/10
f 881/10 882/10 838/10 837/10
f 831/10 816/10 820/10 835/10
f 838/10 882/10 879/10 832/10
f 836/10 819/10 822/10 834/10
f 880/10 881/10 837/10 833/10
f 883/10 843/10 844/9 884/9
f 884/9 885/9 886/10 883/10
f 844/19 845/21 887/21 884/19
f 888/21 885/19 884/19 887/21
f 845/21 846/20 889/20 887/21
f 890/20 888/21 887/21 889/20
f 846/20 847/10 891/10 889/20
f 892/10 890/20 889/20 891/10
f 893/10 848/10 843/10 883/10
f 883/10 886/10 894/10 893/10
f 895/10 849/10 850/10 896/10
f 896/10 897/10 898/10 895/10
f 847/10 849/10 895/10 891/10
f 898/10 892/10 891/10 895/10
f 896/10 850/10 848/10 893/10
f 893/10 894/10 897/10 896/10
f 706/10 886/10 885/9 711/9
f 711/19 885/19 888/21 712/21
f 888/21 890/20 713/20 712/21
f 890/20 892/10 714/10 713/20
f 708/10 894/10 886/10 706/10
f 898/10 897/10 716/10 715/10
f 892/10 898/10 715/10 714/10
f 716/10 897/10 894/10 708/10
f 871/20 874/10 870/10 869/10
f 872/21 873/10 874/10 871/20
f 873/10 872/21 861/21 863/10
f 899/91 868/10 867/10 900/92
f 840/9 839/10 868/10 899/93
f 899/94 862/21 811/21 840/19
f 859/21 862/21 899/96 900/95
f 901/97 861/21 860/21 902/98
f 903/99 863/10 861/21 901/97
f 864/10 863/10 903/99 904/100
f 901/97 902/98 904/100 903/99
f 876/10 875/9 852/9 851/10
f 875/9 877/21 853/21 852/9
f 877/21 878/20 854/20 853/21
f 878/20 879/10 855/10 854/20
f 880/10 876/10 851/10 856/10
f 882/10 881/10 858/10 857/10
f 879/10 882/10 857/10 855/10
f 881/10 880/10 856/10 858/10
f 764/85 759/78 905/102 906/101
f 761/81 760/82 907/104 908/103
f 909/40 910/40 461/49 460/49
f 760/82 765/84 911/105 907/104
f 912/40 913/40 466/49 465/49
f 758/79 513/28 914/107 915/106
f 916/40 912/40 465/49 471/49
f 908/103 907/104 912/40 916/40
f 913/40 912/40 907/104 911/105
f 910/40 909/40 906/101 905/102
f 917/40 918/40 915/106 914/107
f 474/49 475/49 918/40 917/40
f 512/29 917/40 914/107 513/28
f 109/47 474/49 917/40 512/29
f 919/106 920/40 718/40 717/62
f 920/40 478/49 259/49 718/40
f 759/78 758/79 915/106 905/102
f 910/40 918/40 475/49 461/49
f 765/84 764/85 906/101 911/105
f 913/40 909/40 460/49 466/49
f 911/105 906/101 909/40 913/40
f 905/102 915/106 918/40 910/40
f 908/103 919/106 717/62 761/81
f 916/40 920/40 919/106 908/103
f 471/49 478/49 920/40 916/40
f 535/33 534/32 516/32 519/33
f 534/32 537/34 520/34 516/32
f 537/34 539/9 522/9 520/34
f 539/9 541/35 524/35 522/9
f 541/35 543/10 526/10 524/35
f 543/10 545/4 528/4 526/10
f 545/4 547/11 530/11 528/4
f 547/11 535/33 519/33 530/11
f 689/32 688/33 551/33 550/32
f 690/34 689/32 550/32 553/34
f 691/9 690/34 553/34 555/9
f 692/35 691/9 555/9 557/35
f 693/10 692/35 557/35 559/10
f 694/4 693/10 559/10 561/4
f 695/11 694/4 561/4 563/11
f 688/33 695/11 563/11 551/33
f 699/10 239/20 247/20 707/10
f 669/33 635/33 634/32 666/32
f 652/33 651/11 668/11 669/33
f 651/11 649/55 667/55 668/11
f 666/32 634/32 633/55 667/55
f 921/21 860/21 859/21 922/21
f 923/10 865/10 864/10 924/10
f 925/10 867/10 865/10 923/10
f 926/92 900/92 867/10 925/10
f 922/21 859/21 900/95 926/95
f 927/10 925/10 923/10 924/10
f 928/92 926/92 925/10 927/10
f 921/21 922/21 926/95 928/95
f 904/10 927/10 924/10 864/10
f 902/92 928/92 927/10 904/10
f 860/21 921/21 928/95 902/95

